<?xml version="1.0" standalone="no"?>
<!DOCTYPE svg PUBLIC "-//W3C//DTD SVG 20010904//EN"
 "http://www.w3.org/TR/2001/REC-SVG-20010904/DTD/svg10.dtd">
<svg version="1.0" xmlns="http://www.w3.org/2000/svg"
 width="512.000000pt" height="512.000000pt" viewBox="0 0 512.000000 512.000000"
 preserveAspectRatio="xMidYMid meet">
<metadata>
Created by potrace 1.11, written by Peter Selinger 2001-2013
</metadata>
<g transform="translate(0.000000,512.000000) scale(0.100000,-0.100000)"
fill="#000000" stroke="none">
<path d="M1470 4765 l0 -345 335 0 335 0 0 84 c0 78 -1 84 -22 90 -13 3 -119
6 -237 6 l-214 0 7 38 c3 20 6 88 6 150 l0 112 230 0 230 0 0 105 0 105 -335
0 -335 0 0 -345z"/>
<path d="M2220 4900 l0 -210 235 0 235 0 0 -50 0 -50 -235 0 -235 0 0 -85 0
-85 339 0 c187 0 342 4 345 9 3 4 3 97 -1 205 l-6 196 -244 0 -243 0 0 40 0
40 248 2 247 3 3 35 c2 19 1 63 -3 98 l-7 62 -339 0 -339 0 0 -210z"/>
<path d="M2977 4988 c-4 -66 -7 -161 -7 -210 l0 -88 240 0 240 0 0 -49 0 -48
-67 -6 c-38 -4 -146 -7 -240 -7 l-173 0 0 -80 0 -80 345 0 345 0 -2 203 -3
202 -247 3 -248 2 0 40 0 40 250 0 250 0 0 100 0 100 -338 0 -339 0 -6 -122z"/>
<path d="M745 4078 c3 -29 78 -863 166 -1853 88 -989 162 -1801 164 -1803 2
-2 337 -98 745 -213 l740 -209 746 209 c410 115 747 211 749 213 1 2 75 822
164 1823 89 1001 164 1835 167 1853 l5 32 -1826 0 -1826 0 6 -52z m3025 -695
c0 -28 -40 -456 -43 -458 -10 -9 -120 -58 -512 -230 -247 -108 -460 -203 -475
-210 -21 -12 47 -13 463 -8 l487 6 0 -43 c0 -44 -50 -654 -93 -1134 l-22 -250
-485 -128 c-267 -71 -503 -129 -525 -130 -32 -1 -746 176 -961 238 l-51 15
-21 182 c-23 188 -42 411 -42 478 l0 39 213 0 c116 0 217 -4 223 -8 6 -4 16
-75 23 -162 7 -85 14 -167 17 -182 6 -31 -4 -28 342 -94 235 -44 244 -45 285
-29 23 8 147 46 276 85 128 38 235 71 238 73 6 7 43 580 38 585 -3 3 -384 6
-847 7 l-843 2 -22 224 c-11 123 -18 227 -14 231 4 4 227 103 496 219 270 116
518 224 553 239 l64 27 -63 6 c-34 4 -297 7 -584 7 l-522 0 -16 133 c-10 72
-20 167 -24 210 l-6 77 1227 0 c1161 0 1226 -1 1226 -17z"/>
</g>
</svg>
